/* XPM */
static char * drum_xpm[] = {
"21 20 7 1",
" 	c None",
".	c #FFF000",
"+	c #3B3B3B",
"@	c #BF8701",
"#	c #000000",
"$	c #FFFFFF",
"%	c #3D8FB8",
"             .       ",
"        .   +        ",
"     .      +    @@  ",
"      ++   ++   @@   ",
"        +  +   @@    ",
"  .   ##++#+##@@     ",
"    ##$$$+$+$@@##    ",
"  #++++$$$$$@@$$$##  ",
" #$$$$++++$@@$$$$$$# ",
"#$$$$$$$$$$$$$$$$$$$#",
"##$$$$$$$$$$$$$$$$$##",
"#%##$$$$$$$$$$$$$##%#",
"#%%%##$$$$$$$$$##%%%#",
"#%%%%%#########%%%%%#",
"#%%%%%%%%%%%%%%%%%%%#",
"#%%%%%%%%%%%%%%%%%%%#",
" #%%%%%%%%%%%%%%%%%# ",
"  ##%%%%%%%%%%%%%##  ",
"    ##%%%%%%%%%##    ",
"      #########      "};
