/* XPM */
static char * play3_xpm[] = {
"16 11 5 1",
" 	c None",
".	c #000000",
"+	c #BFE8FF",
"@	c #56BEFF",
"#	c #357293",
"  ...           ",
"  .++..         ",
"  .+@++..       ",
"  .+@@@++..     ",
"  .+@@@@@@@..   ",
"  .+@@@@@@@##.  ",
"  .+@@@@@##..   ",
"  .+@@@##..     ",
"  .+@##..       ",
"  .##..         ",
"  ...           "};
