/* XPM */
static const char * rec2_xpm[] = {
"15 11 13 1",
" 	c None",
".	c #000000",
"+	c #FF4242",
"@	c #FF2C2C",
"#	c #FF1D1D",
"$	c #FF0000",
"%	c #FF3A3A",
"&	c #FF1818",
"*	c #FF2B2B",
"=	c #FF1313",
"-	c #C60000",
";	c #D20000",
">	c #BC0000",
"      ...      ",
"    ..+++..    ",
"   .+@#$$$$.   ",
"   .%&$$$$$.   ",
"  .*=$$$$$$$.  ",
"  .$$$$$$$$$.  ",
"  .$$$$$$$$-.  ",
"   .$$$$$$;.   ",
"   .$$$$$;>.   ",
"    ..>>>..    ",
"      ...      "};
